<?xml version="1.0" encoding="UTF-8" standalone="no"?>
<svg width="1115px" height="767px" viewBox="0 0 1115 767" version="1.1" xmlns="http://www.w3.org/2000/svg" xmlns:xlink="http://www.w3.org/1999/xlink" xmlns:sketch="http://www.bohemiancoding.com/sketch/ns">
    <!-- Generator: Sketch 3.3.2 (12043) - http://www.bohemiancoding.com/sketch -->
    <title>Artboard 1</title>
    <desc>Created with Sketch.</desc>
    <defs></defs>
    <g id="Page-1" stroke="none" stroke-width="1" fill="none" fill-rule="evenodd" sketch:type="MSPage">
        <g id="Artboard-1" sketch:type="MSArtboardGroup">
            <g id="inverse" sketch:type="MSLayerGroup" transform="translate(45.000000, 38.000000)">
                <path d="M995.161859,440.242737 L995.161859,424.464608 L995.050748,424.464608 L989.328526,440.242737 L985.606303,440.242737 L979.884081,424.464608 L979.77297,424.464608 L979.77297,440.242737 L974.58547,440.242737 L974.58547,417.989391 L981.932692,417.989391 L987.495192,432.621157 L993.057692,417.989391 L1000.34936,417.989391 L1000.34936,440.242737 L995.161859,440.242737 L995.161859,440.242737 Z M965.411859,422.310834 L965.411859,440.242737 L959.904915,440.242737 L959.904915,422.310834 L953.58547,422.310834 L953.58547,417.989391 L971.724359,417.989391 L971.724359,422.310834 L965.411859,422.310834 L965.411859,422.310834 Z" id="Shape" fill="#FFFFFF" sketch:type="MSShapeGroup"></path>
                <path d="M395.891026,33.4504727 C385.641026,26.3082813 373.474359,22.730238 359.377137,22.730238 C347.342415,22.730238 337.050748,24.9882265 328.502137,29.5042035 C319.946581,34.0201806 312.89797,40.0854851 307.356303,47.7001172 C301.814637,55.3147492 297.724359,64.0132158 295.092415,73.7955168 C292.46047,83.5778178 291.14797,93.7352923 291.14797,104.260993 C291.14797,115.731574 292.46047,126.59771 295.092415,136.838556 C297.724359,147.093298 301.814637,156.021037 307.356303,163.635669 C312.89797,171.250301 319.995192,177.322553 328.641026,181.831583 C337.286859,186.34756 347.627137,188.605548 359.661859,188.605548 C368.495192,188.605548 376.33547,187.153488 383.203526,184.235472 C390.064637,181.324404 395.988248,177.280868 400.967415,172.104863 C405.946581,166.935806 409.849359,160.780182 412.668803,153.624096 C415.488248,146.481904 417.182692,138.770005 417.745192,130.488398 L444.529915,130.488398 C441.89797,155.882084 433.154915,175.627325 418.307692,189.731069 C403.453526,203.834813 383.154915,210.886684 357.39797,210.886684 C341.793803,210.886684 328.168803,208.211836 316.516026,202.848245 C304.856303,197.491602 295.182692,190.11319 287.474359,180.706062 C279.766026,171.298935 273.981303,160.203527 270.134081,147.41289 C266.279915,134.622254 264.349359,120.893683 264.349359,106.22718 C264.349359,91.5537281 266.411859,77.7834719 270.550748,64.8955682 C274.682692,52.0146122 280.745192,40.7733032 288.738248,31.1855365 C296.724359,21.5977699 306.689637,14.0248238 318.627137,8.47364586 C330.564637,2.92941559 344.238248,0.150352796 359.654915,0.150352796 C370.182692,0.150352796 380.141026,1.56072716 389.543803,4.3814759 C398.939637,7.20917229 407.307692,11.3430282 414.634081,16.7969389 C421.96047,22.2508497 428.078526,29.0665012 432.96047,37.2438934 C437.849359,45.4282333 441.043803,54.8770468 442.550748,65.5972816 L415.766026,65.5972816 C412.759081,51.3128988 406.134081,40.5926641 395.891026,33.4504727" id="Shape" fill="#FFFFFF" sketch:type="MSShapeGroup"></path>
                <path d="M534.425748,183.804717 C537.446581,183.804717 541.203526,183.568497 545.71047,183.103004 C550.217415,182.637511 555.016026,181.505043 560.08547,179.712548 C565.161859,177.927 570.196581,175.342471 575.175748,171.952015 C580.154915,168.568506 584.613248,163.962209 588.571581,158.133125 C592.516026,152.304041 595.759081,145.015949 598.293803,136.268848 C600.828526,127.521748 602.099359,116.947414 602.099359,104.531951 C602.099359,92.4986094 600.925748,81.7297411 598.58547,72.232294 C596.224359,62.7348469 592.377137,54.6477742 587.016026,47.9710758 C581.661859,41.3013251 574.745192,36.2225878 566.293803,32.734864 C557.83547,29.2610356 547.404915,27.5171736 534.995192,27.5171736 L489.884081,27.5171736 L489.884081,183.804717 L534.425748,183.804717 L534.425748,183.804717 Z M532.182692,4.95118377 C563.196581,4.95118377 587.057692,12.8506698 603.800748,28.6496417 C620.52297,44.4416661 628.891026,68.5222452 628.891026,100.870536 C628.891026,117.795028 627.009081,132.79502 623.252137,145.863563 C619.488248,158.939053 613.668803,169.937194 605.766026,178.871881 C597.870192,187.806568 587.814637,194.629167 575.592415,199.325783 C563.370192,204.029347 548.89797,206.377655 532.175748,206.377655 L463.092415,206.377655 L463.092415,4.95118377 L532.182692,4.95118377 L532.182692,4.95118377 Z" id="Shape" fill="#FFFFFF" sketch:type="MSShapeGroup"></path>
                <path d="M675.127137,4.95118377 L675.127137,105.379565 L777.196581,4.95118377 L811.891026,4.95118377 L727.016026,86.1970845 L815.266026,206.377655 L781.432692,206.377655 L708.682692,104.531951 L675.127137,135.845041 L675.127137,206.377655 L648.342415,206.377655 L648.342415,4.95118377 L675.127137,4.95118377 Z" id="Shape" fill="#FFFFFF" sketch:type="MSShapeGroup"></path>
                <path d="M264.349359,340.766184 C264.349359,326.502644 266.46047,312.93387 270.682692,300.066809 C274.904915,287.206696 281.050748,275.895911 289.120192,266.127505 C297.189637,256.366047 307.08547,248.619409 318.814637,242.89454 C330.543803,237.169671 344.009081,234.307236 359.21047,234.307236 C369.529915,234.307236 379.384081,235.80793 388.766026,238.809318 C398.154915,241.817653 406.550748,246.229415 413.96047,252.044604 C421.370192,257.866741 427.613248,264.911665 432.682692,273.172429 C437.752137,281.433193 441.127137,290.826426 442.814637,301.338231 L430.988248,301.338231 C426.293803,283.691182 417.849359,269.893135 405.654915,259.937143 C393.453526,249.98115 378.064637,245.013575 359.488248,245.013575 C345.974359,245.013575 334.050748,247.63979 323.731303,252.899166 C313.411859,258.158542 304.779915,265.203467 297.83547,274.026991 C290.891026,282.857463 285.634081,293.035781 282.071581,304.582786 C278.502137,316.129792 276.724359,328.197873 276.724359,340.773132 C276.724359,353.542925 278.46047,365.604058 281.932692,376.963477 C285.404915,388.329844 290.564637,398.230255 297.418803,406.678606 C304.266026,415.126957 312.856303,421.845341 323.175748,426.805968 C333.495192,431.787438 345.599359,434.274699 359.495192,434.274699 C371.502137,434.274699 382.293803,432.301565 391.870192,428.355296 C401.446581,424.409026 409.557692,418.878691 416.217415,411.7365 C422.877137,404.601256 427.904915,396.007005 431.279915,385.960693 C434.654915,375.921328 436.064637,364.693915 435.502137,352.306242 L361.474359,352.306242 L361.474359,341.599903 L446.203526,341.599903 L446.203526,440.180208 L435.509081,440.180208 L435.509081,397.368745 L434.946581,397.368745 C432.502137,404.691576 428.842415,411.305745 423.967415,417.218201 C419.08547,423.137605 413.307692,428.10518 406.64797,432.148716 C399.988248,436.185305 392.571581,439.325646 384.411859,441.576687 C376.245192,443.827728 367.752137,444.953248 358.932692,444.953248 C343.731303,444.953248 330.259081,442.229767 318.536859,436.782803 C306.807692,431.342788 296.904915,423.92269 288.83547,414.536406 C280.766026,405.150121 274.661859,394.117242 270.536859,381.437768 C266.411859,368.758294 264.349359,355.224258 264.349359,340.766184" id="Shape" fill="#FFFFFF" sketch:type="MSShapeGroup"></path>
                <rect id="Rectangle-path" fill="#FFFFFF" sketch:type="MSShapeGroup" x="471.196581" y="237.246095" width="10.7013889" height="201.099931"></rect>
                <path d="M507.057692,367.806465 C507.057692,376.442403 508.279915,384.7518 510.717415,392.734658 C513.154915,400.717516 516.717415,407.804126 521.411859,414.001436 C526.106303,420.198746 531.925748,425.131583 538.870192,428.78605 C545.807692,432.447466 553.786859,434.281647 562.793803,434.281647 C571.807692,434.281647 579.77297,432.447466 586.717415,428.78605 C593.661859,425.131583 599.481303,420.198746 604.182692,414.001436 C608.870192,407.804126 612.432692,400.724464 614.877137,392.734658 C617.314637,384.758748 618.529915,376.442403 618.529915,367.806465 C618.529915,359.170527 617.307692,350.868077 614.877137,342.885219 C612.432692,334.909309 608.870192,327.815751 604.182692,321.618441 C599.481303,315.421131 593.661859,310.495243 586.717415,306.833827 C579.77297,303.172412 571.807692,301.338231 562.793803,301.338231 C553.786859,301.338231 545.807692,303.172412 538.870192,306.833827 C531.925748,310.495243 526.106303,315.421131 521.411859,321.618441 C516.717415,327.815751 513.154915,334.909309 510.717415,342.885219 C508.279915,350.868077 507.057692,359.170527 507.057692,367.806465 M496.363248,367.806465 C496.363248,357.489194 497.807692,347.769422 500.724359,338.654096 C503.634081,329.552666 507.904915,321.528122 513.536859,314.573517 C519.168803,307.62586 526.113248,302.137211 534.363248,298.093675 C542.620192,294.057086 552.106303,292.035318 562.800748,292.035318 C573.502137,292.035318 582.974359,294.057086 591.238248,298.093675 C599.488248,302.137211 606.439637,307.62586 612.071581,314.573517 C617.703526,321.521174 621.967415,329.552666 624.877137,338.654096 C627.786859,347.769422 629.245192,357.482247 629.245192,367.806465 C629.245192,378.137631 627.786859,387.899089 624.877137,397.097787 C621.967415,406.296485 617.703526,414.327976 612.071581,421.178366 C606.439637,428.035703 599.488248,433.482666 591.238248,437.519255 C582.981303,441.555844 573.502137,443.577612 562.800748,443.577612 C552.106303,443.577612 542.627137,441.555844 534.363248,437.519255 C526.113248,433.482666 519.168803,428.042651 513.536859,421.178366 C507.904915,414.334924 503.634081,406.296485 500.724359,397.097787 C497.807692,387.899089 496.363248,378.137631 496.363248,367.806465" id="Shape" fill="#FFFFFF" sketch:type="MSShapeGroup"></path>
                <path d="M710.814637,434.274699 C720.411859,434.274699 728.495192,432.211245 735.08547,428.077389 C741.668803,423.943533 747.029915,418.545204 751.168803,411.882401 C755.307692,405.219598 758.314637,397.702233 760.203526,389.351149 C762.08547,381.000066 763.02297,372.690668 763.02297,364.422956 C763.02297,356.349779 761.946581,348.561455 759.779915,341.04409 C757.613248,333.533673 754.321581,326.822236 749.89797,320.90978 C745.467415,314.990377 740.016026,310.252075 733.529915,306.687927 C727.029915,303.123778 719.467415,301.331283 710.814637,301.331283 C701.411859,301.331283 693.217415,302.929244 686.252137,306.118219 C679.293803,309.314141 673.550748,313.725903 669.036859,319.353505 C664.52297,324.988055 661.134081,331.657806 658.870192,339.348862 C656.613248,347.046866 655.488248,355.404897 655.488248,364.416008 C655.488248,373.24648 656.52297,381.882418 658.592415,390.323821 C660.661859,398.765224 663.911859,406.233956 668.328526,412.71612 C672.745192,419.198284 678.439637,424.409026 685.404915,428.348348 C692.370192,432.301565 700.83547,434.274699 710.814637,434.274699 L710.814637,434.274699 Z M644.793803,239.094172 L655.203526,239.094172 L655.203526,326.120523 L655.77297,326.120523 C657.83547,320.485973 660.759081,315.560084 664.52297,311.335909 C668.279915,307.111734 672.613248,303.547586 677.502137,300.636517 C682.391026,297.725449 687.654915,295.564728 693.300748,294.154353 C698.939637,292.743979 704.77297,292.042266 710.800748,292.042266 C721.52297,292.042266 730.786859,293.925081 738.592415,297.676815 C746.39797,301.435498 752.932692,306.597607 758.203526,313.163143 C763.474359,319.735626 767.377137,327.384997 769.918803,336.118201 C772.453526,344.851406 773.731303,354.286324 773.731303,364.422956 C773.731303,381.701779 771.377137,395.541512 766.675748,405.962997 C761.96047,416.384483 756.321581,424.360393 749.745192,429.897675 C743.161859,435.441906 736.293803,439.096373 729.141026,440.881921 C721.995192,442.667469 715.884081,443.563717 710.800748,443.563717 C701.196581,443.563717 693.064637,442.056075 686.384081,439.061635 C679.703526,436.0533 674.203526,432.537785 669.877137,428.494249 C665.543803,424.45766 662.259081,420.469705 660.002137,416.516488 C657.738248,412.584114 656.33547,409.673046 655.77297,407.790231 L655.217415,407.790231 L655.217415,440.17326 L644.793803,440.17326 L644.793803,239.094172 L644.793803,239.094172 Z" id="Shape" fill="#FFFFFF" sketch:type="MSShapeGroup"></path>
                <path d="M887.703526,357.94774 C885.071581,361.143662 881.08547,363.304383 875.731303,364.429904 C870.384081,365.555424 864.425748,366.396091 857.856303,366.965798 L839.842415,368.654079 C834.578526,369.216839 829.321581,370.01582 824.071581,371.051021 C818.814637,372.079274 814.078526,373.816188 809.856303,376.254816 C805.634081,378.700391 802.203526,382.035266 799.58547,386.252494 C796.953526,390.47667 795.64797,395.965319 795.64797,402.725389 C795.64797,413.431728 799.02297,421.365953 805.779915,426.528062 C812.536859,431.697119 821.828526,434.274699 833.64797,434.274699 C845.849359,434.274699 855.509081,432.072292 862.64797,427.653582 C869.779915,423.24182 875.224359,418.176978 878.981303,412.452109 C882.731303,406.727239 885.127137,401.183009 886.154915,395.833313 C887.182692,390.47667 887.71047,386.863888 887.71047,384.981073 L887.71047,357.94774 L887.703526,357.94774 Z M887.703526,411.458594 L887.134081,411.458594 C885.446581,415.780036 883.002137,419.865259 879.814637,423.714261 C876.620192,427.563263 872.724359,430.995405 868.127137,433.989845 C863.529915,436.998181 858.321581,439.346489 852.509081,441.03477 C846.689637,442.72305 840.307692,443.570664 833.363248,443.570664 C817.967415,443.570664 806.050748,440.235789 797.613248,433.572986 C789.175748,426.910183 784.946581,416.634598 784.946581,402.732337 C784.946581,394.283986 786.634081,387.384962 790.009081,382.035266 C793.384081,376.678623 797.654915,372.454448 802.821581,369.355792 C807.981303,366.264085 813.703526,364.05473 819.995192,362.741623 C826.279915,361.435464 832.328526,360.490582 838.14797,359.927822 L854.766026,358.517448 C862.453526,357.954687 868.509081,357.065387 872.918803,355.8426 C877.328526,354.619812 880.661859,352.931531 882.911859,350.777758 C885.161859,348.623984 886.571581,345.851869 887.127137,342.46836 C887.696581,339.091799 887.974359,334.867623 887.974359,329.795834 C887.974359,325.856512 887.224359,322.195097 885.724359,318.811588 C884.217415,315.435027 881.877137,312.433639 878.682692,309.800477 C875.488248,307.174262 871.363248,305.110808 866.300748,303.603167 C861.231303,302.102473 855.036859,301.352126 847.717415,301.352126 C834.766026,301.352126 824.300748,304.548048 816.321581,310.925997 C808.349359,317.310894 803.981303,326.982033 803.231303,339.932465 L792.536859,339.932465 C793.279915,323.973697 798.39797,312.002884 807.877137,304.026974 C817.349359,296.051064 830.821581,292.056161 848.27297,292.056161 C865.724359,292.056161 878.439637,295.488303 886.418803,302.338693 C894.384081,309.196031 898.384081,318.158508 898.384081,329.233073 L898.384081,413.445624 C898.384081,415.516025 898.425748,417.57948 898.529915,419.642934 C898.627137,421.713336 898.953526,423.582255 899.516026,425.284431 C900.078526,426.965764 901.016026,428.327505 902.328526,429.362706 C903.634081,430.397907 905.516026,430.918981 907.967415,430.918981 C909.842415,430.918981 912.467415,430.634127 915.849359,430.071367 L915.849359,439.082478 C913.029915,439.832825 910.120192,440.207998 907.120192,440.207998 C902.800748,440.207998 899.377137,439.652186 896.849359,438.526665 C894.314637,437.394197 892.384081,435.893503 891.078526,434.017636 C889.766026,432.141769 888.870192,429.932414 888.39797,427.396519 C887.932692,424.867572 887.696581,422.095457 887.696581,419.094069 L887.696581,411.458594 L887.703526,411.458594 Z" id="Shape" fill="#FFFFFF" sketch:type="MSShapeGroup"></path>
                <rect id="Rectangle-path" fill="#FFFFFF" sketch:type="MSShapeGroup" x="929.529915" y="237.246095" width="10.7013889" height="201.092984"></rect>
                <g id="Group" sketch:type="MSShapeGroup">
                    <path d="M210.974359,105.511571 C210.974359,163.705146 163.821581,210.879737 105.654915,210.879737 C47.4882479,210.879737 0.335470085,163.705146 0.335470085,105.511571 C0.335470085,47.3249437 47.4882479,0.143405139 105.654915,0.143405139 C163.821581,0.143405139 210.974359,47.3249437 210.974359,105.511571" id="Shape" fill="#FFFFFF"></path>
                    <path d="M210.974359,339.612873 C210.974359,397.7995 163.821581,444.981039 105.654915,444.981039 C47.4882479,444.981039 0.335470085,397.806448 0.335470085,339.612873 C0.335470085,281.419298 47.4882479,234.244707 105.654915,234.244707 C163.821581,234.244707 210.974359,281.419298 210.974359,339.612873" id="Shape" fill="#FFFFFF"></path>
                    <path d="M105.247692,467.521173 C47.1237607,467.521173 0,514.882452 0,573.299346 C0,631.723215 47.1237607,679.084494 105.247692,679.084494 C163.378564,679.084494 210.502325,631.723215 210.502325,573.299346 C210.502325,514.882452 163.378564,467.521173 105.247692,467.521173" id="Shape" fill="#82C600"></path>
                </g>
            </g>
        </g>
    </g>
</svg>