<svg enable-background="new 0 0 1200 400" viewBox="0 0 1200 400" xmlns="http://www.w3.org/2000/svg" xmlns:xlink="http://www.w3.org/1999/xlink"><linearGradient id="a"><stop offset="0" stop-color="#6b27d6"/><stop offset=".5167" stop-color="#4490e1"/><stop offset=".9996" stop-color="#00d7c5"/></linearGradient><linearGradient id="b" gradientTransform="matrix(1 0 0 -1 0 400)" gradientUnits="userSpaceOnUse" x1="62.8455" x2="470.9417" xlink:href="#a" y1="204.85" y2="204.85"/><linearGradient id="c" gradientTransform="matrix(1 0 0 -1 0 400)" gradientUnits="userSpaceOnUse" x1="62.8455" x2="470.9417" xlink:href="#a" y1="204.86" y2="204.86"/><path d="m221.48 119.91c-10.24-17.57-24.17-28.24-39.75-28.24-32.18 0-57.38 45.45-57.38 103.48s25.21 103.48 57.38 103.48c15.58 0 29.51-10.67 39.75-28.24 23.48-.75 41.76-33.51 41.76-75.23.01-41.73-18.27-74.5-41.76-75.25zm-7.18 136.01c-13.97-6.76-23.24-35.05-23.24-60.78s9.27-54.02 23.24-60.78c7.31 16.2 11.83 37.64 11.83 60.78.01 23.14-4.52 44.58-11.83 60.78zm-32.57 29.72c-24.07 0-44.4-41.44-44.4-90.49s20.33-90.49 44.4-90.49c9.82 0 19.01 6.9 26.46 18.39-17.61 9.21-30.11 37.6-30.11 72.1 0 34.51 12.5 62.89 30.11 72.1-7.44 11.49-16.64 18.39-26.46 18.39zm47.13-30.76c6.48-16.77 10.26-37.3 10.26-59.73s-3.78-42.96-10.26-59.73c12.94 8.25 21.4 35.15 21.4 59.73s-8.46 51.48-21.4 59.73z" fill="url(#b)"/><path d="m81.64 140.73c-17.74 0-31.64 23.9-31.64 54.42s13.9 54.42 31.64 54.42 31.64-23.9 31.64-54.42-13.9-54.42-31.64-54.42zm0 95.85c-8.81 0-18.66-17.72-18.66-41.43s9.85-41.43 18.66-41.43 18.66 17.72 18.66 41.43-9.85 41.43-18.66 41.43z" fill="url(#b)"/><path d="m433.56 102.98c-8.7 0-16.82 3.7-23.93 10.25-13.21-31.18-33.95-50.92-57.7-50.92-40.82 0-72.79 58.35-72.79 132.83s31.97 132.83 72.79 132.83c23.74 0 44.49-19.75 57.7-50.92 7.11 6.55 15.23 10.25 23.93 10.25 28.85 0 51.45-40.48 51.45-92.16s-22.6-92.16-51.45-92.16zm-21.82 92.17c0 18.93-2.33 37-6.43 53.12-6.31-14.17-10.22-32.9-10.22-53.12s3.91-38.95 10.22-53.12c4.1 16.11 6.43 34.18 6.43 53.12zm-59.81 119.85c-32.42 0-59.81-54.89-59.81-119.85s27.39-119.85 59.81-119.85c19.43 0 37.05 19.72 48.05 49.51-11 16.78-17.88 41.85-17.88 70.34s6.88 53.57 17.88 70.34c-10.99 29.79-28.61 49.51-48.05 49.51zm81.63-40.67c-6.84 0-13.32-3.92-18.95-10.67 6.44-19.89 10.12-43.27 10.12-68.51s-3.68-48.62-10.12-68.51c5.63-6.75 12.12-10.67 18.95-10.67 20.85 0 38.47 36.26 38.47 79.18s-17.62 79.18-38.47 79.18z" fill="url(#c)"/><g fill="#fff"><path d="m547.94 253.91c-7.66-2.98-13.59-7.09-17.78-12.34-4.19-5.24-6.29-11.08-6.29-17.54v-2.18c0-.8.28-1.49.85-2.06.56-.56 1.25-.85 2.06-.85h21.29c.8 0 1.49.28 2.06.85.56.57.85 1.25.85 2.06v.48c0 4.03 2.21 7.54 6.65 10.52 4.43 2.99 10.04 4.48 16.81 4.48 6.45 0 11.69-1.33 15.72-3.99s6.05-6.01 6.05-10.04c0-3.71-1.66-6.49-4.96-8.34-3.31-1.85-8.67-3.83-16.09-5.93l-9.19-2.9c-8.22-2.42-15.16-5-20.8-7.74-5.65-2.74-10.4-6.49-14.27-11.25-3.87-4.75-5.8-10.84-5.8-18.26 0-11.29 4.43-20.28 13.3-26.97s20.56-10.04 35.07-10.04c9.83 0 18.46 1.57 25.88 4.72 7.42 3.14 13.14 7.5 17.17 13.06s6.05 11.89 6.05 18.99c0 .81-.28 1.49-.85 2.06s-1.25.85-2.06.85h-20.56c-.81 0-1.49-.28-2.06-.85-.57-.56-.85-1.25-.85-2.06 0-4.19-2.06-7.7-6.17-10.52s-9.72-4.23-16.81-4.23c-6.29 0-11.41 1.17-15.36 3.51s-5.93 5.6-5.93 9.8c0 3.87 1.89 6.81 5.68 8.83s10.12 4.23 18.99 6.65l5.32 1.45c8.54 2.58 15.72 5.2 21.53 7.86 5.8 2.66 10.72 6.37 14.75 11.13s6.05 10.93 6.05 18.5c0 11.45-4.52 20.44-13.55 26.97s-21.04 9.8-36.04 9.8c-10.14-.01-19.06-1.5-26.71-4.48z"/><path d="m649.16 111.56c-3.23-3.22-4.84-7.34-4.84-12.34s1.61-9.11 4.84-12.34c3.22-3.22 7.34-4.84 12.34-4.84s9.11 1.61 12.34 4.84c3.22 3.23 4.84 7.34 4.84 12.34s-1.61 9.11-4.84 12.34-7.34 4.84-12.34 4.84-9.11-1.61-12.34-4.84zm-1.33 144.52c-.57-.56-.85-1.25-.85-2.06v-118.03c0-.8.28-1.49.85-2.06.56-.56 1.25-.85 2.06-.85h22.25c.8 0 1.49.28 2.06.85.56.57.85 1.25.85 2.06v118.04c0 .81-.28 1.49-.85 2.06s-1.25.85-2.06.85h-22.25c-.81-.01-1.49-.29-2.06-.86z"/><path d="m795.38 143c7.82 7.74 11.73 18.3 11.73 31.69v79.34c0 .81-.28 1.49-.85 2.06s-1.25.85-2.06.85h-22.25c-.81 0-1.49-.28-2.06-.85-.57-.56-.85-1.25-.85-2.06v-73.53c0-7.42-2.1-13.42-6.29-18.02s-9.76-6.89-16.69-6.89c-6.94 0-12.54 2.26-16.81 6.77-4.27 4.52-6.41 10.48-6.41 17.9v73.77c0 .81-.28 1.49-.85 2.06s-1.25.85-2.06.85h-22.23c-.81 0-1.49-.28-2.06-.85-.57-.56-.85-1.25-.85-2.06v-117.8c0-.81.28-1.49.85-2.06.56-.56 1.25-.85 2.06-.85h22.25c.8 0 1.49.28 2.06.85.56.57.85 1.25.85 2.06v7.74c0 .48.16.81.48.97s.56 0 .73-.48c6.61-8.71 16.61-13.06 29.99-13.06 13.06-.01 23.5 3.86 31.32 11.6z"/><path d="m931.65 176.31s-16.21 0-19.21 0c-3.41 0-3.57-1.86-4.54-5.25-1.45-4.51-4.35-8.22-8.71-11.13-4.35-2.9-9.52-4.35-15.48-4.35-6.13 0-11.33 1.57-15.6 4.72-4.27 3.14-7.14 7.46-8.59 12.94-1.61 5.16-2.42 12.34-2.42 21.53 0 8.87.73 16.05 2.18 21.53 1.61 5.65 4.51 10.12 8.71 13.42 4.19 3.31 9.43 4.96 15.72 4.96 6.13 0 11.41-1.57 15.84-4.72 4.43-3.14 6.8-6.75 8.34-11.67.74-3.34 3.13-3.77 5.11-3.77s20.76 0 20.76 0 3.37.2 2.98 3.7c-.4 3.51-1.51 7.02-1.51 7.02-3.07 10.32-9.28 18.5-18.63 24.55s-20.32 9.07-32.9 9.07c-12.42 0-23.14-3.18-32.17-9.55s-15.32-14.96-18.87-25.76c-2.58-7.26-3.87-16.93-3.87-29.03 0-11.61 1.29-21.12 3.87-28.54 3.39-10.64 9.63-19.07 18.75-25.28 9.11-6.21 19.87-9.31 32.29-9.31 12.58 0 23.54 3.14 32.9 9.43 9.35 6.29 15.56 14.19 18.63 23.7.66 2.12 1.08 4.28 1.41 6.41.93 5.9-4.99 5.38-4.99 5.38z"/><path d="m1029.33 135.02c1.29.65 1.77 1.86 1.45 3.63l-4.11 21.77c-.16 1.94-1.29 2.5-3.39 1.69-2.42-.8-5.24-1.21-8.47-1.21-2.1 0-3.71.08-4.84.24-6.77.33-12.42 2.7-16.93 7.14-4.52 4.44-6.77 10.2-6.77 17.29v68.45c0 .81-.28 1.49-.85 2.06s-1.25.85-2.06.85h-22.25c-.81 0-1.49-.28-2.06-.85-.57-.56-.85-1.25-.85-2.06v-117.8c0-.81.28-1.49.85-2.06.56-.56 1.25-.85 2.06-.85h22.25c.8 0 1.49.28 2.06.85.56.57.85 1.25.85 2.06v10.88c0 .65.12 1.01.36 1.09s.52-.12.85-.6c6.77-10.48 16.21-15.72 28.3-15.72 5.16.01 9.68 1.06 13.55 3.15z"/><path d="m1061.83 249.19c-9.11-6.45-15.52-15.4-19.23-26.85-2.74-8.71-4.11-17.9-4.11-27.57 0-10.32 1.29-19.51 3.87-27.57 3.71-11.29 10.16-20.08 19.35-26.37s20.23-9.43 33.14-9.43c12.25 0 22.86 3.14 31.81 9.43s15.28 15 18.99 26.12c2.9 7.74 4.35 16.93 4.35 27.57 0 10.16-1.37 19.35-4.11 27.57-3.71 11.45-10.08 20.44-19.11 26.97s-19.76 9.8-32.17 9.8c-12.74.01-23.67-3.22-32.78-9.67zm48.14-19.59c4.27-3.39 7.38-8.14 9.31-14.27 1.61-5.32 2.42-12.09 2.42-20.32 0-8.71-.81-15.48-2.42-20.32-1.78-6.13-4.84-10.84-9.19-14.15-4.35-3.3-9.68-4.96-15.96-4.96-5.97 0-11.13 1.66-15.48 4.96-4.35 3.31-7.5 8.02-9.43 14.15-1.61 5.65-2.42 12.42-2.42 20.32s.8 14.68 2.42 20.32c1.77 6.13 4.88 10.88 9.31 14.27s9.8 5.08 16.09 5.08c5.95 0 11.07-1.7 15.35-5.08z"/><path d="m545.75 290.43h3.96l16.2 36.51h-4.99l-4.68-10.64h-17.02l-4.68 10.64h-4.94zm8.59 21.55-6.63-15.07-6.63 15.07z"/><path d="m572.38 301.23h4.42v3.96c1.75-3.03 4.83-4.47 8.18-4.47 5.76 0 9.72 4.01 9.72 10.39v15.84h-4.37v-15.17c0-4.32-2.47-6.99-6.07-6.99-4.17 0-7.46 3.39-7.46 9.41v12.75h-4.42z"/><path d="m629.67 290.43h3.96l16.2 36.51h-4.99l-4.68-10.64h-17.02l-4.68 10.64h-4.94zm8.59 21.55-6.63-15.07-6.63 15.07z"/><path d="m656.31 301.23h4.42v3.96c1.75-3.03 4.83-4.47 8.18-4.47 5.76 0 9.72 4.01 9.72 10.39v15.84h-4.37v-15.17c0-4.32-2.47-6.99-6.07-6.99-4.17 0-7.46 3.39-7.46 9.41v12.75h-4.42z"/><path d="m696.88 327.45c-5.5 0-10.08-2.78-10.44-7.97h4.53c.62 3.14 3.29 4.22 5.97 4.22 2.78 0 4.94-1.13 4.94-3.39 0-2.06-1.23-3.29-4.27-4.11l-3.7-.98c-4.42-1.13-6.63-3.91-6.63-7.56 0-4.27 3.7-6.94 8.9-6.94 5.5 0 8.9 3.24 9.36 7.35h-4.42c-.67-2.26-2.52-3.65-4.94-3.65-2.47 0-4.42 1.23-4.42 3.19 0 1.9 1.18 2.98 3.91 3.7l4.11 1.08c4.27 1.08 6.58 3.75 6.58 7.61-.02 5.09-4.13 7.45-9.48 7.45z"/><path d="m716.88 294.34c-1.75 0-3.19-1.39-3.19-3.14 0-1.7 1.44-3.14 3.19-3.14s3.09 1.44 3.09 3.14c0 1.75-1.34 3.14-3.09 3.14zm-2.26 6.89h4.42v25.71h-4.42z"/><path d="m729.43 301.23h4.42v4.99c1.03-3.29 4.22-5.25 7.2-5.25.67 0 1.29.05 2.01.21v4.58c-.82-.31-1.54-.41-2.42-.41-3.24 0-6.79 2.83-6.79 8.84v12.75h-4.42z"/><path d="m759.98 300.71c3.86 0 7.35 2.01 9.05 4.47v-3.96h4.42v25.71h-4.42v-3.96c-1.7 2.47-5.19 4.47-9.05 4.47-7.2 0-12.6-6.02-12.6-13.37 0-7.34 5.4-13.36 12.6-13.36zm.66 4.07c-5.19 0-8.79 4.11-8.79 9.31 0 5.19 3.6 9.31 8.79 9.31s8.74-4.11 8.74-9.31c.01-5.2-3.54-9.31-8.74-9.31z"/><path d="m815.31 289.81c9.21 0 15.89 6.02 17.48 12.65h-5.04c-1.59-4.58-6.38-8.12-12.44-8.12-8.12 0-14.14 6.27-14.14 14.35s6.02 14.35 14.14 14.35c6.07 0 10.85-3.55 12.44-8.12h5.04c-1.59 6.63-8.28 12.65-17.48 12.65-10.7 0-18.92-8.23-18.92-18.87-.01-10.66 8.22-18.89 18.92-18.89z"/><path d="m852.12 327.45c-7.76 0-13.47-5.96-13.47-13.37 0-7.4 5.71-13.37 13.47-13.37 7.71 0 13.42 5.97 13.42 13.37.01 7.41-5.7 13.37-13.42 13.37zm0-4.11c5.35 0 8.9-4.11 8.9-9.26 0-5.14-3.55-9.26-8.9-9.26s-8.95 4.11-8.95 9.26c.01 5.15 3.61 9.26 8.95 9.26z"/><path d="m873.88 301.23h4.42v3.96c1.49-2.73 4.32-4.47 7.77-4.47 3.86 0 6.63 2.11 7.92 5.5 1.39-3.39 4.63-5.5 8.43-5.5 5.6 0 9 4.17 9 10.44v15.79h-4.42v-15.12c0-4.17-1.75-7.04-5.09-7.04-4.17 0-7.05 3.6-7.05 9.41v12.75h-4.42v-15.12c0-4.17-1.7-7.04-5.04-7.04-4.17 0-7.1 3.6-7.1 9.41v12.75h-4.42z"/><path d="m921.39 301.23h4.42v3.96c1.7-2.47 5.19-4.47 9.05-4.47 7.15 0 12.6 6.02 12.6 13.37s-5.45 13.37-12.6 13.37c-3.86 0-7.35-2.01-9.05-4.47v14.71h-4.42zm12.81 3.55c-5.19 0-8.74 4.11-8.74 9.31 0 5.19 3.55 9.31 8.74 9.31s8.74-4.11 8.74-9.31-3.55-9.31-8.74-9.31z"/><path d="m966.44 300.71c3.86 0 7.35 2.01 9.05 4.47v-3.96h4.42v25.71h-4.42v-3.96c-1.7 2.47-5.19 4.47-9.05 4.47-7.2 0-12.6-6.02-12.6-13.37 0-7.34 5.4-13.36 12.6-13.36zm.67 4.07c-5.19 0-8.79 4.11-8.79 9.31 0 5.19 3.6 9.31 8.79 9.31s8.74-4.11 8.74-9.31-3.55-9.31-8.74-9.31z"/><path d="m990.25 301.23h4.42v3.96c1.75-3.03 4.83-4.47 8.18-4.47 5.76 0 9.72 4.01 9.72 10.39v15.84h-4.37v-15.17c0-4.32-2.47-6.99-6.07-6.99-4.17 0-7.46 3.39-7.46 9.41v12.75h-4.42z"/><path d="m1023.93 337.69 5.6-12.08-11.26-24.37h4.89l8.85 19.49 8.79-19.49h4.94l-16.87 36.46h-4.94z"/></g></svg>